<?xml version="1.0" encoding="UTF-8"?>
<svg id="a" data-name="PSScene_20250101_030135_01_24a8_area" xmlns="http://www.w3.org/2000/svg" viewBox="0 0 2880 900">
  <defs>
    <style>
      .b {
        stroke: #e0366e;
        stroke-width: 4px;
      }

      .b, .c {
        fill: none;
      }

      .c {
        stroke: #000;
        stroke-linecap: round;
        stroke-linejoin: round;
      }
    </style>
  </defs>
  <g>
    <rect class="c" x="899.77" y="417.29" width="23.36" height="115.28" transform="translate(242.94 1255.56) rotate(-76.95)"/>
    <polygon class="c" points="1628.52 136.44 1628.7 109.83 1796.81 111.13 1796.6 137.7 1628.52 136.44"/>
    <polygon class="c" points="1458.25 129.61 1458.07 110.47 1580.99 109.44 1581.13 128.6 1458.25 129.61"/>
    <rect class="c" x="1045.56" y="451.89" width="19.57" height="105.02" transform="translate(377.48 1457.65) rotate(-80.13)"/>
    <rect class="c" x="1910.28" y="54.84" width="23.59" height="137.58" transform="translate(1783.11 2044.65) rotate(-89.54)"/>
    <polygon class="c" points="1190.82 739.28 1215.35 657.78 1232.38 662.88 1207.85 744.38 1190.82 739.28"/>
    <polygon class="c" points="2234.93 133.25 2234.61 113.57 2370.42 111.39 2370.73 131.14 2234.93 133.25"/>
    <polygon class="c" points="739.47 446.12 743.55 429.03 826.29 448.88 822.21 465.96 739.47 446.12"/>
    <rect class="c" x="-44.55" y="277.92" width="84.3" height="16.48" transform="translate(-5.87 .01) rotate(-1.18)"/>
    <polygon class="c" points="2057.67 134.15 2057.84 111.71 2182.85 112.65 2182.71 135.06 2057.67 134.15"/>
    <rect class="c" x="1140.63" y="806.05" width="70.05" height="13.35" transform="translate(49.97 1693.36) rotate(-72.69)"/>
    <polygon class="c" points="205.73 289.9 205.72 272.71 290.67 272.59 290.7 289.82 205.73 289.9"/>
    <rect class="c" x="864.89" y="472.2" width="10.34" height="45.43" transform="translate(205.43 1243.39) rotate(-78.03)"/>
    <polygon class="c" points="1381.62 821.16 1397.21 730.82 1416.13 734.07 1400.55 824.41 1381.62 821.16"/>
    <polygon class="c" points="91.57 290.97 91.88 271.88 173.86 273.27 173.51 292.38 91.57 290.97"/>
    <polygon class="c" points="1245.65 448.71 1251.06 438.27 1280.93 453.85 1275.5 464.25 1245.65 448.71"/>
    <polygon class="c" points="2483.47 502.21 2483.04 486.93 2552.4 485.13 2552.83 500.41 2483.47 502.21"/>
    <polygon class="c" points="713.06 465.79 715.71 453.78 778.4 467.5 775.83 479.53 713.06 465.79"/>
    <polygon class="c" points="1098.38 944.75 1133.01 895.33 1145.92 904.35 1111.28 953.77 1098.38 944.75"/>
    <polygon class="c" points="127.34 323.29 126.61 312.59 190.34 308.17 191.1 318.91 127.34 323.29"/>
    <rect class="c" x="728.65" y="60.44" width="6.6" height="20.77" transform="translate(481.59 762.27) rotate(-75.62)"/>
    <polygon class="c" points="1672.33 318.8 1674.01 312.39 1689.55 316.42 1687.87 322.84 1672.33 318.8"/>
    <rect class="c" x="359.5" y="367.37" width="7.57" height="38.71" transform="translate(-101.7 642.29) rotate(-75.58)"/>
    <polygon class="c" points="1756.63 252.8 1758.06 247.33 1773.62 251.3 1772.21 256.81 1756.63 252.8"/>
    <rect class="c" x="2045.15" y="322.82" width="9.46" height="13.23" transform="translate(1218.75 2232) rotate(-75.53)"/>
    <polygon class="c" points="1421.25 116.57 1422.66 111.06 1433.64 113.89 1432.21 119.36 1421.25 116.57"/>
    <polygon class="c" points="1151.26 557.89 1160.41 547.36 1164.27 550.69 1155.1 561.17 1151.26 557.89"/>
    <rect class="c" x="1306.76" y="470.65" width="4.65" height="13.08" transform="translate(90.36 1152.55) rotate(-49.02)"/>
    <polygon class="c" points="1921.72 229.09 1923.34 222.66 1937.97 226.43 1936.34 232.82 1921.72 229.09"/>
    <polygon class="c" points="407.39 399.09 408.59 394.5 425.02 398.76 423.85 403.33 407.39 399.09"/>
    <polygon class="c" points="2202.93 120.69 2202.72 117.11 2215.18 116.22 2215.47 119.82 2202.93 120.69"/>
    <polygon class="c" points="2389.82 135.15 2389.49 115.47 2525.31 113.29 2525.62 133.04 2389.82 135.15"/>
    <polygon class="c" points="2456.22 198.93 2453.06 191.43 2471.65 184.88 2474.82 192.38 2456.22 198.93"/>
    <polygon class="c" points="2605.94 198.19 2600.17 189.48 2622.07 176.79 2627.85 185.51 2605.94 198.19"/>
  </g>
  <g>
    <rect class="b" x="899.77" y="417.29" width="23.36" height="115.28" transform="translate(242.94 1255.56) rotate(-76.95)"/>
    <polygon class="b" points="1628.52 136.44 1628.7 109.83 1796.81 111.13 1796.6 137.7 1628.52 136.44"/>
    <polygon class="b" points="1458.25 129.61 1458.07 110.47 1580.99 109.44 1581.13 128.6 1458.25 129.61"/>
    <rect class="b" x="1045.56" y="451.89" width="19.57" height="105.02" transform="translate(377.48 1457.65) rotate(-80.13)"/>
    <rect class="b" x="1910.28" y="54.84" width="23.59" height="137.58" transform="translate(1783.11 2044.65) rotate(-89.54)"/>
    <polygon class="b" points="1190.82 739.28 1215.35 657.78 1232.38 662.88 1207.85 744.38 1190.82 739.28"/>
    <polygon class="b" points="2234.93 133.25 2234.61 113.57 2370.42 111.39 2370.73 131.14 2234.93 133.25"/>
    <polygon class="b" points="739.47 446.12 743.55 429.03 826.29 448.88 822.21 465.96 739.47 446.12"/>
    <rect class="b" x="-44.55" y="277.92" width="84.3" height="16.48" transform="translate(-5.87 .01) rotate(-1.18)"/>
    <polygon class="b" points="2057.67 134.15 2057.84 111.71 2182.85 112.65 2182.71 135.06 2057.67 134.15"/>
    <rect class="b" x="1140.63" y="806.05" width="70.05" height="13.35" transform="translate(49.97 1693.36) rotate(-72.69)"/>
    <polygon class="b" points="205.73 289.9 205.72 272.71 290.67 272.59 290.7 289.82 205.73 289.9"/>
    <rect class="b" x="864.89" y="472.2" width="10.34" height="45.43" transform="translate(205.43 1243.39) rotate(-78.03)"/>
    <polygon class="b" points="1381.62 821.16 1397.21 730.82 1416.13 734.07 1400.55 824.41 1381.62 821.16"/>
    <polygon class="b" points="91.57 290.97 91.88 271.88 173.86 273.27 173.51 292.38 91.57 290.97"/>
    <polygon class="b" points="1245.65 448.71 1251.06 438.27 1280.93 453.85 1275.5 464.25 1245.65 448.71"/>
    <polygon class="b" points="2483.47 502.21 2483.04 486.93 2552.4 485.13 2552.83 500.41 2483.47 502.21"/>
    <polygon class="b" points="713.06 465.79 715.71 453.78 778.4 467.5 775.83 479.53 713.06 465.79"/>
    <polygon class="b" points="1098.38 944.75 1133.01 895.33 1145.92 904.35 1111.28 953.77 1098.38 944.75"/>
    <polygon class="b" points="127.34 323.29 126.61 312.59 190.34 308.17 191.1 318.91 127.34 323.29"/>
    <rect class="b" x="728.65" y="60.44" width="6.6" height="20.77" transform="translate(481.59 762.27) rotate(-75.62)"/>
    <polygon class="b" points="1672.33 318.8 1674.01 312.39 1689.55 316.42 1687.87 322.84 1672.33 318.8"/>
    <rect class="b" x="359.5" y="367.37" width="7.57" height="38.71" transform="translate(-101.7 642.29) rotate(-75.58)"/>
    <polygon class="b" points="1756.63 252.8 1758.06 247.33 1773.62 251.3 1772.21 256.81 1756.63 252.8"/>
    <rect class="b" x="2045.15" y="322.82" width="9.46" height="13.23" transform="translate(1218.75 2232) rotate(-75.53)"/>
    <polygon class="b" points="1421.25 116.57 1422.66 111.06 1433.64 113.89 1432.21 119.36 1421.25 116.57"/>
    <polygon class="b" points="1151.26 557.89 1160.41 547.36 1164.27 550.69 1155.1 561.17 1151.26 557.89"/>
    <rect class="b" x="1306.76" y="470.65" width="4.65" height="13.08" transform="translate(90.36 1152.55) rotate(-49.02)"/>
    <polygon class="b" points="1921.72 229.09 1923.34 222.66 1937.97 226.43 1936.34 232.82 1921.72 229.09"/>
    <polygon class="b" points="407.39 399.09 408.59 394.5 425.02 398.76 423.85 403.33 407.39 399.09"/>
    <polygon class="b" points="2202.93 120.69 2202.72 117.11 2215.18 116.22 2215.47 119.82 2202.93 120.69"/>
    <polygon class="b" points="2389.82 135.15 2389.49 115.47 2525.31 113.29 2525.62 133.04 2389.82 135.15"/>
    <polygon class="b" points="2456.22 198.93 2453.06 191.43 2471.65 184.88 2474.82 192.38 2456.22 198.93"/>
    <polygon class="b" points="2605.94 198.19 2600.17 189.48 2622.07 176.79 2627.85 185.51 2605.94 198.19"/>
  </g>
</svg>